<svg id="Capa_1" data-name="Capa 1" xmlns="http://www.w3.org/2000/svg" xmlns:xlink="http://www.w3.org/1999/xlink" viewBox="0 0 100 26.49"><defs><style>.cls-1{fill:#d9e021;}.cls-2{fill:#004a9c;}.cls-3{fill:#002082;}.cls-4{fill:url(#linear-gradient);}.cls-5{fill:url(#linear-gradient-2);}.cls-6{fill:url(#linear-gradient-3);}.cls-7{fill:url(#linear-gradient-4);}.cls-8{fill:#bccd00;}.cls-9{fill:url(#linear-gradient-5);}.cls-10{fill:url(#linear-gradient-6);}.cls-11{fill:url(#linear-gradient-7);}.cls-12,.cls-13,.cls-15{stroke:#0095d4;}.cls-12,.cls-13,.cls-15,.cls-18{stroke-miterlimit:10;stroke-width:0.5px;}.cls-12{fill:url(#linear-gradient-8);}.cls-13{fill:url(#linear-gradient-9);}.cls-14{fill:url(#linear-gradient-10);}.cls-15{fill:url(#linear-gradient-11);}.cls-16{fill:url(#linear-gradient-12);}.cls-17{fill:#fff;}.cls-18{stroke:#d6d900;fill:url(#linear-gradient-13);}.cls-19{fill:url(#linear-gradient-14);}.cls-20{fill:url(#linear-gradient-15);}</style><linearGradient id="linear-gradient" x1="67.12" y1="23.08" x2="67.12" y2="9.17" gradientUnits="userSpaceOnUse"><stop offset="0" stop-color="#002082"/><stop offset="1" stop-color="#24388e"/><stop offset="1" stop-color="#416bac"/></linearGradient><linearGradient id="linear-gradient-2" x1="86.52" y1="23.08" x2="86.52" y2="9.17" xlink:href="#linear-gradient"/><linearGradient id="linear-gradient-3" x1="44.23" y1="-58.63" x2="45.13" y2="-74.06" gradientTransform="translate(-19.64 85.86) rotate(-5.88)" xlink:href="#linear-gradient"/><linearGradient id="linear-gradient-4" x1="37.33" y1="15.79" x2="42.03" y2="16.04" gradientUnits="userSpaceOnUse"><stop offset="0" stop-color="#bccd00"/><stop offset="1" stop-color="#56a92a"/></linearGradient><linearGradient id="linear-gradient-5" x1="44" y1="16.25" x2="44.37" y2="16.25" xlink:href="#linear-gradient"/><linearGradient id="linear-gradient-6" x1="43.41" y1="16.25" x2="44.96" y2="16.25" xlink:href="#linear-gradient"/><linearGradient id="linear-gradient-7" x1="45.81" y1="16.25" x2="47.25" y2="16.25" xlink:href="#linear-gradient"/><linearGradient id="linear-gradient-8" x1="42.61" y1="-84.15" x2="43.22" y2="-99.8" gradientTransform="matrix(0.99, -0.1, 0.1, 0.93, -17.67, 105.17)" gradientUnits="userSpaceOnUse"><stop offset="0" stop-color="#002082"/><stop offset="1" stop-color="#0066ad"/></linearGradient><linearGradient id="linear-gradient-9" x1="67.12" y1="23.63" x2="67.12" y2="9.72" gradientTransform="matrix(1, 0, 0, 1, 0, 0)" xlink:href="#linear-gradient-8"/><linearGradient id="linear-gradient-10" x1="84.24" y1="10.51" x2="84.24" y2="9.53" xlink:href="#linear-gradient"/><linearGradient id="linear-gradient-11" x1="87.51" y1="23.34" x2="87.51" y2="9.43" gradientTransform="matrix(1, 0, 0, 1, 0, 0)" xlink:href="#linear-gradient-8"/><linearGradient id="linear-gradient-12" x1="5.05" y1="20.26" x2="2.76" y2="16.65" gradientTransform="matrix(1, 0, 0, 1, 0, 0)" xlink:href="#linear-gradient-8"/><linearGradient id="linear-gradient-13" x1="42.47" y1="20.83" x2="42.47" y2="11.55" gradientUnits="userSpaceOnUse"><stop offset="0" stop-color="#94bb15"/><stop offset="1" stop-color="#56a92a"/></linearGradient><linearGradient id="linear-gradient-14" x1="32.62" y1="20.02" x2="32.54" y2="25.2" xlink:href="#linear-gradient-13"/><linearGradient id="linear-gradient-15" x1="52.34" y1="20.13" x2="52.26" y2="25.31" xlink:href="#linear-gradient-13"/></defs><title>LogoFinal_verde1</title><path class="cls-1" d="M30.16,20.43s-1.3-.66-.79-7.05C29.57,11,29,8.86,25.17,8.18c-6.48-1.14-13.09.11-13.4-.74s1.1-.89,3.72-.92,66.85-.05,66.85-.05v.38S12.78,6.5,13,7.07c-.51.26,2.46.13,7.53.15a20.52,20.52,0,0,1,7,1,4.3,4.3,0,0,1,2.67,2.45,10.64,10.64,0,0,1,.14,3,20.26,20.26,0,0,0,0,4.22A4.62,4.62,0,0,0,31,20Z" transform="translate(0 -2)"/><path class="cls-2" d="M18.28,4.64a1.38,1.38,0,0,1-.7,1.06,3.33,3.33,0,0,1-1.68.37A2.84,2.84,0,0,1,14,5.54,1.79,1.79,0,0,1,13.4,4a1.8,1.8,0,0,1,.65-1.52A3.06,3.06,0,0,1,16,2a3.12,3.12,0,0,1,1.64.37,1.33,1.33,0,0,1,.65,1h-.67a.59.59,0,0,1-.53-.24,1.22,1.22,0,0,0-.26-.26A1.74,1.74,0,0,0,16,2.72a1.64,1.64,0,0,0-1.11.34,1.26,1.26,0,0,0-.37,1,1.23,1.23,0,0,0,.37,1A1.48,1.48,0,0,0,16,5.36a1.7,1.7,0,0,0,.83-.18.93.93,0,0,0,.42-.54Z" transform="translate(0 -2)"/><path class="cls-2" d="M21.59,5.05h.78a1.28,1.28,0,0,1-.65.72A2.56,2.56,0,0,1,20.5,6a2.1,2.1,0,0,1-1.39-.42,1.4,1.4,0,0,1-.5-1.16,1.38,1.38,0,0,1,.48-1.12,2.1,2.1,0,0,1,1.39-.42,2.29,2.29,0,0,1,1.45.4,1.42,1.42,0,0,1,.5,1.16V4.6a.15.15,0,0,1,0,.08H19.72A.65.65,0,0,0,20,5.2a.89.89,0,0,0,.61.18A1.16,1.16,0,0,0,21,5.3l.09,0,.09-.06a.29.29,0,0,1,.12-.09A.6.6,0,0,1,21.59,5.05Zm-1.87-.88h1.59a.62.62,0,0,0-.22-.45.92.92,0,0,0-.58-.16.94.94,0,0,0-.56.16A.56.56,0,0,0,19.72,4.18Z" transform="translate(0 -2)"/><path class="cls-2" d="M26.41,6h-.55a.64.64,0,0,1-.38-.11.33.33,0,0,1-.15-.28V4.07a.42.42,0,0,0-.23-.39,1,1,0,0,0-.51-.12,1,1,0,0,0-.5.12.42.42,0,0,0-.22.39V6H22.8V4.22a1,1,0,0,1,.55-1,3.11,3.11,0,0,1,1.22-.28,3,3,0,0,1,1.26.26,1,1,0,0,1,.58,1Z" transform="translate(0 -2)"/><path class="cls-2" d="M28.62,6q-.51,0-1.11,0t-.6-.55V2.11h.56a.6.6,0,0,1,.36.11.33.33,0,0,1,.16.27V3h.64v.16a.32.32,0,0,1-.16.28.64.64,0,0,1-.37.11H28V5.2q0,.19.31.19h.33Z" transform="translate(0 -2)"/><path class="cls-2" d="M28.91,6V4.53a1.4,1.4,0,0,1,.18-.74,1.35,1.35,0,0,1,.49-.48,2.29,2.29,0,0,1,.69-.25A4.2,4.2,0,0,1,31.09,3h.16v.8h-.36a1.15,1.15,0,0,0-.67.16.57.57,0,0,0-.22.49V6Z" transform="translate(0 -2)"/><path class="cls-2" d="M32.07,5.71a1.13,1.13,0,0,1-.47-.54,1.87,1.87,0,0,1-.14-.71,1.67,1.67,0,0,1,.12-.61,1.19,1.19,0,0,1,.37-.51,1.87,1.87,0,0,1,1-.4A3.29,3.29,0,0,1,34.14,3a1.5,1.5,0,0,1,.87.58,1.45,1.45,0,0,1,.26.86,1.59,1.59,0,0,1-.11.62,1.44,1.44,0,0,1-.28.44,1.68,1.68,0,0,1-.95.46,2.92,2.92,0,0,1-1,0A2.16,2.16,0,0,1,32.07,5.71Zm.75-2a.85.85,0,0,0-.3.77,1,1,0,0,0,.26.71.76.76,0,0,0,.33.15,1,1,0,0,0,.47,0A.8.8,0,0,0,34,5.12a1,1,0,0,0,.2-.65A.89.89,0,0,0,34,3.86a.8.8,0,0,0-.41-.26,1,1,0,0,0-.47,0A.94.94,0,0,0,32.82,3.73Z" transform="translate(0 -2)"/><path class="cls-2" d="M37.64,6V2.52a.35.35,0,0,1,.16-.29.66.66,0,0,1,.4-.12h1.54a3,3,0,0,1,1.84.47A1.77,1.77,0,0,1,42.19,4,2,2,0,0,1,42,5a1.71,1.71,0,0,1-.65.65,2.51,2.51,0,0,1-.73.27A6,6,0,0,1,39.45,6Zm1.07-.7h.89A1.76,1.76,0,0,0,40.72,5,1.14,1.14,0,0,0,41.07,4a1.24,1.24,0,0,0-.33-1,1.39,1.39,0,0,0-1-.3h-1Z" transform="translate(0 -2)"/><path class="cls-2" d="M44.07,2l-.95.71H42.6L43,2.13l.11-.08A.4.4,0,0,1,43.37,2Z" transform="translate(0 -2)"/><path class="cls-2" d="M47.91,6V2.8H46.32V2.52a.35.35,0,0,1,.16-.29.66.66,0,0,1,.4-.12h3.71V2.8H49V6Z" transform="translate(0 -2)"/><path class="cls-2" d="M53.87,5.05h.78a1.28,1.28,0,0,1-.65.72A2.56,2.56,0,0,1,52.78,6a2.1,2.1,0,0,1-1.39-.42,1.4,1.4,0,0,1-.5-1.16,1.38,1.38,0,0,1,.48-1.12,2.1,2.1,0,0,1,1.39-.42,2.29,2.29,0,0,1,1.45.4,1.42,1.42,0,0,1,.5,1.16V4.6a.15.15,0,0,1,0,.08H52a.65.65,0,0,0,.23.52.89.89,0,0,0,.61.18,1.16,1.16,0,0,0,.45-.08l.09,0,.09-.06a.29.29,0,0,1,.12-.09A.6.6,0,0,1,53.87,5.05ZM52,4.18h1.59a.62.62,0,0,0-.22-.45.92.92,0,0,0-.58-.16.94.94,0,0,0-.56.16A.56.56,0,0,0,52,4.18Z" transform="translate(0 -2)"/><path class="cls-2" d="M58,5.05h.78a1.29,1.29,0,0,1-.65.72A2.56,2.56,0,0,1,56.87,6a2.1,2.1,0,0,1-1.39-.42A1.4,1.4,0,0,1,55,4.46a1.38,1.38,0,0,1,.48-1.12,2.1,2.1,0,0,1,1.39-.42,2.29,2.29,0,0,1,1.45.4,1.45,1.45,0,0,1,.4.57H57.62a.7.7,0,0,0-.16-.17.92.92,0,0,0-.58-.16.94.94,0,0,0-.56.16.9.9,0,0,0-.28.74.86.86,0,0,0,.28.73.89.89,0,0,0,.61.18,1.16,1.16,0,0,0,.45-.08l.09,0,.09-.06.12-.09A.56.56,0,0,1,58,5.05Z" transform="translate(0 -2)"/><path class="cls-2" d="M62.72,6h-.55a.64.64,0,0,1-.38-.11.33.33,0,0,1-.15-.28V4.07a.42.42,0,0,0-.23-.39,1,1,0,0,0-.51-.12,1,1,0,0,0-.5.12.42.42,0,0,0-.22.39V6H59.11V4.22a1,1,0,0,1,.55-1,3.11,3.11,0,0,1,1.22-.28,3,3,0,0,1,1.26.26,1,1,0,0,1,.58,1Z" transform="translate(0 -2)"/><path class="cls-2" d="M63.61,5.71a1.13,1.13,0,0,1-.47-.54A1.87,1.87,0,0,1,63,4.45a1.67,1.67,0,0,1,.12-.61,1.19,1.19,0,0,1,.37-.51,1.87,1.87,0,0,1,1-.4A3.29,3.29,0,0,1,65.68,3a1.5,1.5,0,0,1,.87.58,1.45,1.45,0,0,1,.26.86,1.59,1.59,0,0,1-.11.62,1.44,1.44,0,0,1-.28.44,1.68,1.68,0,0,1-.95.46,2.92,2.92,0,0,1-1,0A2.16,2.16,0,0,1,63.61,5.71Zm.75-2a.85.85,0,0,0-.3.77,1,1,0,0,0,.26.71.76.76,0,0,0,.33.15,1,1,0,0,0,.47,0,.8.8,0,0,0,.43-.25,1,1,0,0,0,.2-.65.89.89,0,0,0-.18-.61.8.8,0,0,0-.41-.26,1,1,0,0,0-.47,0A.94.94,0,0,0,64.36,3.73Z" transform="translate(0 -2)"/><path class="cls-2" d="M67.23,2.11h.56a.65.65,0,0,1,.37.11.31.31,0,0,1,.16.26V6H67.23Z" transform="translate(0 -2)"/><path class="cls-2" d="M69.22,5.71a1.13,1.13,0,0,1-.47-.54,1.87,1.87,0,0,1-.14-.71,1.68,1.68,0,0,1,.12-.61,1.19,1.19,0,0,1,.37-.51,1.87,1.87,0,0,1,1-.4A3.29,3.29,0,0,1,71.29,3a1.5,1.5,0,0,1,.87.58,1.45,1.45,0,0,1,.26.86,1.59,1.59,0,0,1-.11.62,1.44,1.44,0,0,1-.28.44,1.68,1.68,0,0,1-.95.46,2.92,2.92,0,0,1-1,0A2.16,2.16,0,0,1,69.22,5.71Zm.75-2a.85.85,0,0,0-.3.77,1,1,0,0,0,.26.71.76.76,0,0,0,.33.15,1,1,0,0,0,.47,0,.8.8,0,0,0,.43-.25,1,1,0,0,0,.2-.65.89.89,0,0,0-.18-.61.8.8,0,0,0-.41-.26,1,1,0,0,0-.47,0A.94.94,0,0,0,70,3.73Z" transform="translate(0 -2)"/><path class="cls-2" d="M75.54,5.8V5.6a1.25,1.25,0,0,1-.76.39,2.11,2.11,0,0,1-.94-.06,1.71,1.71,0,0,1-.8-.5,1.36,1.36,0,0,1-.33-1,1.5,1.5,0,0,1,.44-1.13,2,2,0,0,1,1.42-.43A3.3,3.3,0,0,1,76,3.21a1.08,1.08,0,0,1,.64,1.08V5.87A1.07,1.07,0,0,1,76,6.95a3.35,3.35,0,0,1-1.39.29q-1.43,0-1.78-1h1.14a.78.78,0,0,0,.38.24,1.1,1.1,0,0,0,.51,0,.92.92,0,0,0,.47-.22A.76.76,0,0,0,75.54,5.8ZM73.77,4.5q0,.77.62.86a1.05,1.05,0,0,0,.92-.21.72.72,0,0,0,.2-.39,1.18,1.18,0,0,0,0-.52.91.91,0,0,0-.26-.46A1,1,0,0,0,74,3.86,1.13,1.13,0,0,0,73.77,4.5Z" transform="translate(0 -2)"/><path class="cls-2" d="M77.08,3h.56A.62.62,0,0,1,78,3.1a.33.33,0,0,1,.16.27V6H77.08Zm1.65-1-.95.7h-.5l.42-.57.11-.08A.44.44,0,0,1,78,2Z" transform="translate(0 -2)"/><path class="cls-2" d="M81.25,5.85a2.49,2.49,0,0,1-.69.15l-.65,0a2.09,2.09,0,0,1-1-.22.75.75,0,0,1-.42-.72.7.7,0,0,1,.38-.67,2.74,2.74,0,0,1,1-.27l.19,0,.25,0Q81,4,81,3.81t-.24-.22a2.18,2.18,0,0,0-.44-.05,1.54,1.54,0,0,0-.39,0,.4.4,0,0,0-.25.17h-1a.84.84,0,0,1,.44-.57,2.3,2.3,0,0,1,1.2-.26,3.1,3.1,0,0,1,1.31.21.69.69,0,0,1,.45.63v1a1,1,0,0,1-.23.7A1.31,1.31,0,0,1,81.25,5.85ZM81,4.47a3.76,3.76,0,0,1-.61.15L80,4.67a1.08,1.08,0,0,0-.4.15.38.38,0,0,0-.11.25.32.32,0,0,0,.14.27.75.75,0,0,0,.41.09,1.15,1.15,0,0,0,.68-.18A.58.58,0,0,0,81,4.75Z" transform="translate(0 -2)"/><path class="cls-3" d="M3.76,22.47s1.65,1.4,2.54,2a11.07,11.07,0,0,0,3.82,1.91l1.43-3.48A15.58,15.58,0,0,1,8,21.1a5.07,5.07,0,0,0-1.52-1Z" transform="translate(0 -2)"/><path class="cls-4" d="M67.19,27.42v0h0v0h-.08v0h0v0a18.1,18.1,0,0,1-5.22-.88,9.72,9.72,0,0,1-4.41-2.69q-1.57-1.77-1.79-5.55V9.55h5v8.69a8.47,8.47,0,0,0,.83,3.64,3.82,3.82,0,0,0,2.41,1.67,10.61,10.61,0,0,0,6.41,0,3.82,3.82,0,0,0,2.41-1.67,8.49,8.49,0,0,0,.83-3.64V9.55h5v8.74q-.22,3.78-1.79,5.55a9.72,9.72,0,0,1-4.41,2.69A18.12,18.12,0,0,1,67.19,27.42Z" transform="translate(0 -2)"/><path class="cls-5" d="M91,26.47a10.55,10.55,0,0,1-5.74.91,8.52,8.52,0,0,1-4.25-1.24,3.16,3.16,0,0,1-1.33-2.61v-14H84.4V23.45c0,.64.43,1.06,1.4,1.22a4.07,4.07,0,0,0,2.31-.16c2.84-1.21,5.48-.35,5.18.12A5.81,5.81,0,0,1,91,26.47Z" transform="translate(0 -2)"/><path class="cls-6" d="M11,22.8A15.87,15.87,0,0,0,15.75,24a14.81,14.81,0,0,0,2.69.07,9.19,9.19,0,0,0,1.43-.21Q22.16,23.3,22,21.9v0q-.15-.83-1.32-1.32t-2.13-.8q-1.54-.47-3.08-.9l-1.55-.44-1.52-.47A8.93,8.93,0,0,1,9,16.15a3.27,3.27,0,0,1-1.15-2,1.25,1.25,0,0,1,0-.2,3.72,3.72,0,0,1,1-2.89,7.53,7.53,0,0,1,3-2,13.18,13.18,0,0,1,3.49-.8l.57-.05a23.61,23.61,0,0,1,4.06,0,23.66,23.66,0,0,1,2.36.38A14.58,14.58,0,0,1,26.39,10c1.66.9,1.55,2.92,1.68,3.14s-4.43,1.09-4.56.54c-.39-1.62-3.35-2-3.35-2a14,14,0,0,0-2.5-.33,11.13,11.13,0,0,0-1.17,0,9.6,9.6,0,0,0-1.28.18q-2.44.51-2.27,1.75v.09a1.15,1.15,0,0,0,.65.82,7.18,7.18,0,0,0,1.18.52q1,.36,2.11.69l2.28.67,1.76.55q.87.28,1.68.58a10.49,10.49,0,0,1,3.46,1.94,3.88,3.88,0,0,1,1.16,2.27c0,.12,0,.25,0,.37A4,4,0,0,1,26,24.85a7.9,7.9,0,0,1-3,1.73,16.16,16.16,0,0,1-2.43.58q-1,.17-1.9.24l-.53,0A23.92,23.92,0,0,1,13,27.08a19.34,19.34,0,0,1-4.23-1.16Z" transform="translate(0 -2)"/><rect class="cls-7" x="34.35" y="15.18" width="12.59" height="1.57"/><path class="cls-8" d="M42.14,8.6h.13a22.59,22.59,0,0,1,5.14.67,10.34,10.34,0,0,1,4.35,2.06,6,6,0,0,1,1.77,4.25v6.68h-5V15.61a5.34,5.34,0,0,0-.82-2.78,3.88,3.88,0,0,0-2.38-1.28,15.2,15.2,0,0,0-3.16-.38,15.2,15.2,0,0,0-3.16.38,3.88,3.88,0,0,0-2.38,1.28,5.35,5.35,0,0,0-.82,2.78v6.65h-5V15.57a6,6,0,0,1,1.76-4.25A10.33,10.33,0,0,1,37,9.27,22.62,22.62,0,0,1,42.14,8.6Z" transform="translate(0 -2)"/><path class="cls-8" d="M48.33,18.32c0,.63-.74,1.14-1.64,1.14H43.94c-.91,0-1.65-.51-1.65-1.14h0c0-.63.74-1.14,1.65-1.14h2.77c.91,0,1.62.51,1.62,1.14Z" transform="translate(0 -2)"/><rect class="cls-9" x="44" y="15.75" width="0.37" height="1"/><rect class="cls-10" x="43.41" y="16.12" width="1.56" height="0.26"/><rect class="cls-11" x="45.81" y="16.12" width="1.44" height="0.26"/><path class="cls-12" d="M7.21,20.55c1.83,1.11,3.13,2.3,9,3.05a13.23,13.23,0,0,0,2.69.05,9.81,9.81,0,0,0,1.43-.21q2.29-.52,2.11-1.83v0q-.14-.77-1.31-1.23T19,19.61l-3.07-.83-1.54-.41-1.51-.43A9,9,0,0,1,9.47,16.3a3,3,0,0,1-1.13-1.85,1.18,1.18,0,0,1,0-.19,3.4,3.4,0,0,1,1-2.71,7.72,7.72,0,0,1,3-1.88,14,14,0,0,1,3.49-.76l.57-.05a25.13,25.13,0,0,1,4.05,0q1.21.12,2.36.35A15.1,15.1,0,0,1,27,10.5c1.65.84,1.52,2.72,1.65,2.93s-4.83.92-5,.41c-.37-1.51-2.93-1.79-2.93-1.79a14.74,14.74,0,0,0-2.5-.3q-.61,0-1.17,0a10.33,10.33,0,0,0-1.28.18q-2.45.49-2.28,1.65v.08a1.07,1.07,0,0,0,.64.76,7.37,7.37,0,0,0,1.18.48q1,.33,2.1.64l2.28.61,1.75.51q.87.26,1.67.53A10.5,10.5,0,0,1,26.56,19a3.51,3.51,0,0,1,1.14,2.12c0,.11,0,.23,0,.35a3.63,3.63,0,0,1-1.26,2.87,8.6,8.6,0,0,1-3,1.73,11.5,11.5,0,0,1-2.45.61q-1,.16-1.9.23l-.53,0a21.76,21.76,0,0,1-5.4-.28c-6.17-.87-7.8-3.52-9-4Z" transform="translate(0 -2)"/><path class="cls-13" d="M67.19,28v0h0v0h-.08v0h0v0a18.1,18.1,0,0,1-5.22-.88,9.73,9.73,0,0,1-4.41-2.69q-1.57-1.77-1.79-5.55V10.11h5V18.8a8.47,8.47,0,0,0,.83,3.64,3.82,3.82,0,0,0,2.41,1.67,10.6,10.6,0,0,0,6.41,0,3.82,3.82,0,0,0,2.41-1.67,8.49,8.49,0,0,0,.83-3.64V10.11h5v8.74q-.22,3.78-1.79,5.55a9.72,9.72,0,0,1-4.41,2.69A18.11,18.11,0,0,1,67.19,28Z" transform="translate(0 -2)"/><path class="cls-14" d="M85.44,10.13V9.71l-1-.16L83,9.71l.21,1.11Z" transform="translate(0 -2)"/><path class="cls-15" d="M92,26.74a10.55,10.55,0,0,1-5.74.91,8.52,8.52,0,0,1-4.25-1.24,3.16,3.16,0,0,1-1.33-2.61V9.8H85.4V23.71A1.1,1.1,0,0,0,86.52,25c1.37.14,1.89-.42,2.79-.8,2.84-1.21,5.27.19,5,.65A5.81,5.81,0,0,1,92,26.74Z" transform="translate(0 -2)"/><polygon class="cls-16" points="6.73 16.99 5.05 15.83 4.36 16.31 3.17 15.53 0 17.78 1.18 18.6 0.53 19.06 2.3 20.47 4.69 20.85 7.52 18.94 6.73 16.99"/><polygon class="cls-17" points="2.44 17.61 2.02 17.92 1.67 17.68 2.09 17.36 2.44 17.61"/><polygon class="cls-17" points="3.42 16.87 2.99 17.19 2.64 16.94 3.07 16.63 3.42 16.87"/><path class="cls-3" d="M91.16,26.57l2.5-1.67,1.26-.2,2.86-3c.34-.38-.14-.74-.14-.74L100,18.76,96.61,17l-2.16,2a1,1,0,0,0-1.07.09c-.46.38-3.28,3-3.28,3l.13.72a3.22,3.22,0,0,1-1.89,2.08A18.85,18.85,0,0,0,91.16,26.57Z" transform="translate(0 -2)"/><path class="cls-17" d="M92.8,23.73a.79.79,0,0,1-.87.08.37.37,0,0,1-.11-.63.79.79,0,0,1,.87-.08A.37.37,0,0,1,92.8,23.73Z" transform="translate(0 -2)"/><polygon class="cls-17" points="95.65 18.19 92.39 21.2 92.61 21.3 95.86 18.29 96.11 18.45 96.27 17.8 95.43 18.06 95.65 18.19"/><polygon class="cls-17" points="93.98 20.03 93.74 20.25 95.41 20.13 95.97 19.61 96.16 19.71 96.61 19.3 96.03 18.98 95.59 19.39 95.79 19.5 95.28 19.96 93.98 20.03"/><polygon class="cls-17" points="93.19 20.46 93.01 19.58 93.55 19.08 93.35 18.96 92.73 19.54 92.97 20.66 93.19 20.46"/><path class="cls-17" d="M94,21a.47.47,0,0,1-.51,0,.22.22,0,0,1-.06-.37.47.47,0,0,1,.51,0A.22.22,0,0,1,94,21Z" transform="translate(0 -2)"/><polygon class="cls-17" points="95.83 17.7 95.35 17.42 95.66 17.15 96.14 17.43 95.83 17.7"/><polygon class="cls-17" points="96.94 18.34 96.46 18.06 96.77 17.78 97.25 18.06 96.94 18.34"/><path class="cls-18" d="M42.4,9.2h.13a22.59,22.59,0,0,1,5.14.67A10.32,10.32,0,0,1,52,11.93a6,6,0,0,1,1.77,4.25v6.68h-5V16.21A5.34,5.34,0,0,0,48,13.43a3.88,3.88,0,0,0-2.38-1.28,15.2,15.2,0,0,0-3.16-.38,15.2,15.2,0,0,0-3.16.38,3.89,3.89,0,0,0-2.38,1.28,5.34,5.34,0,0,0-.82,2.78v6.65h-5V16.17a6,6,0,0,1,1.77-4.25,10.32,10.32,0,0,1,4.35-2.06A22.61,22.61,0,0,1,42.4,9.2Z" transform="translate(0 -2)"/><ellipse class="cls-19" cx="32.61" cy="20.81" rx="3.74" ry="3.15"/><ellipse class="cls-20" cx="52.33" cy="20.81" rx="3.74" ry="3.15"/><path class="cls-1" d="M82.33,6.47h.53s0-.07.2-.14a16.91,16.91,0,0,0,1.76,0,14.83,14.83,0,0,1,2.34-.1c.35,0,.63,0,.64.2a1.55,1.55,0,0,1,0,.27s1.68,0,1.73,0,.1.09.1.09h.57s.16,0,.16.14-.14.1-.14.1h-.59a.14.14,0,0,1-.15.13c-.31,0-1.72,0-1.72,0s0,.35-.27.38a14.08,14.08,0,0,1-2.07,0,16.58,16.58,0,0,0-1.71-.31c-.33,0-.7,0-.81-.09a.35.35,0,0,1-.1-.2h-.5Z" transform="translate(0 -2)"/></svg>